<?xml version="1.0" standalone="no"?>
<!DOCTYPE svg PUBLIC "-//W3C//DTD SVG 20010904//EN"
 "http://www.w3.org/TR/2001/REC-SVG-20010904/DTD/svg10.dtd">
<svg version="1.0" xmlns="http://www.w3.org/2000/svg"
 width="1650.000000pt" height="1275.000000pt" viewBox="0 0 1650.000000 1275.000000"
 preserveAspectRatio="xMidYMid meet">

<g transform="translate(0.000000,1275.000000) scale(0.100000,-0.100000)"
fill="#000000" stroke="none">
<path d="M1900 6375 l0 -2095 6345 0 6345 0 0 2095 0 2095 -6345 0 -6345 0 0
-2095z m6976 1230 c98 -17 190 -56 265 -111 92 -67 172 -223 198 -384 7 -41
11 -319 11 -752 l0 -688 -280 0 -279 0 -3 653 c-3 588 -5 655 -20 683 -41 76
-162 71 -205 -9 -15 -26 -19 -63 -21 -204 l-4 -173 81 0 81 0 0 -250 0 -250
-80 0 -80 0 0 -225 0 -225 -285 0 -285 0 0 633 c0 385 4 666 11 717 29 235
147 419 329 514 36 18 82 39 104 46 124 40 315 50 462 25z m1652 -1 c42 -8
115 -34 161 -56 68 -32 101 -57 171 -127 146 -146 194 -266 194 -486 0 -119
-3 -137 -31 -217 -52 -149 -149 -262 -277 -322 -82 -39 -168 -56 -308 -63
l-128 -6 0 252 0 251 30 0 c39 0 90 22 114 48 23 27 31 99 14 132 -35 67 -154
79 -211 21 l-32 -31 -3 -665 -2 -665 -286 0 -285 0 4 688 c3 607 6 694 21 751
51 192 175 340 361 431 156 76 327 98 493 64z m2578 1 c98 -17 190 -56 265
-111 92 -67 172 -223 198 -384 7 -41 11 -319 11 -752 l0 -688 -280 0 -279 0
-3 653 c-3 588 -5 655 -20 683 -41 76 -162 71 -205 -9 -15 -26 -19 -63 -21
-204 l-4 -173 81 0 81 0 0 -250 0 -250 -80 0 -80 0 0 -225 0 -225 -285 0 -285
0 0 633 c0 385 4 666 11 717 29 235 147 419 329 514 36 18 82 39 104 46 124
40 315 50 462 25z m-9209 -46 c378 -42 650 -212 789 -494 73 -149 88 -220 88
-430 0 -164 -3 -189 -27 -279 -89 -331 -337 -575 -673 -662 -81 -21 -131 -27
-276 -31 l-178 -6 0 280 0 280 123 6 c323 14 470 156 455 438 -7 141 -68 243
-175 297 -84 43 -143 54 -320 59 l-173 6 0 -677 0 -676 -285 0 -285 0 0 950 0
950 420 0 c233 0 464 -5 517 -11z m3903 -264 l0 -275 -215 0 -215 0 0 -675 0
-675 -285 0 -285 0 0 675 0 675 -215 0 -215 0 0 275 0 275 715 0 715 0 0 -275z
m4070 -675 l0 -950 -285 0 -285 0 0 950 0 950 285 0 285 0 0 -950z m-6201 895
c173 -45 317 -184 378 -364 26 -78 31 -240 10 -312 -11 -36 -11 -49 -1 -74 20
-45 17 -153 -5 -200 -18 -41 -61 -89 -93 -106 -17 -9 -18 2 -18 206 0 118 2
215 5 215 3 0 17 -7 30 -16 l25 -16 0 90 c0 100 -20 182 -63 255 -34 57 -142
158 -201 186 -143 70 -312 67 -450 -7 -68 -36 -167 -137 -199 -203 -48 -98
-69 -226 -51 -296 l6 -23 29 21 29 20 0 -220 c0 -122 -3 -221 -7 -221 -17 0
-75 56 -98 94 -35 60 -42 129 -20 199 15 48 15 60 4 94 -21 59 -18 236 5 303
46 136 113 227 221 299 142 95 297 120 464 76z m-429 -851 l0 -245 -32 3 -33
3 -3 243 -2 242 35 0 35 0 0 -246z m628 4 l-3 -243 -32 -3 -33 -3 0 245 0 246
35 0 35 0 -2 -242z m-232 160 c113 -77 126 -236 25 -321 -105 -88 -294 -46
-340 76 -17 45 -13 124 8 165 39 76 99 111 192 112 59 0 72 -4 115 -32z m102
-1035 c-4 -557 -4 -569 -27 -643 -61 -203 -196 -344 -386 -407 -103 -34 -285
-39 -377 -10 l-58 18 0 199 0 200 50 -20 c164 -64 291 -15 351 135 l24 60 3
518 3 517 210 0 210 0 -3 -567z m2440 -405 c-3 -42 -4 -43 -40 -46 l-38 -3 0
45 0 46 41 0 40 0 -3 -42z m3910 0 c-3 -42 -4 -43 -40 -46 l-38 -3 0 45 0 46
41 0 40 0 -3 -42z m-5038 -13 l0 -35 -130 0 -130 0 0 -70 0 -70 115 0 115 0 0
-35 0 -35 -115 0 -115 0 0 -80 0 -80 135 0 135 0 0 -35 0 -35 -175 0 -175 0 0
255 0 255 170 0 170 0 0 -35z m980 0 l0 -35 -85 0 -85 0 0 -220 0 -220 -40 0
-40 0 0 220 0 220 -85 0 -85 0 0 35 0 35 210 0 210 0 0 -35z m2713 22 c18 -8
47 -26 65 -42 103 -86 109 -288 12 -385 -53 -53 -115 -70 -252 -70 l-108 0 0
255 0 255 125 0 c83 0 137 -5 158 -13z m1187 -22 l0 -35 -130 0 -130 0 0 -75
0 -75 111 0 110 0 -3 -32 -3 -33 -107 -3 -108 -3 0 -109 0 -110 -40 0 -40 0 0
255 0 255 170 0 170 0 0 -35z m1140 -35 l0 -60 40 0 c38 0 40 -2 40 -30 0 -28
-2 -30 -40 -30 l-41 0 3 -122 3 -123 44 -1 c40 0 46 -3 52 -28 6 -23 4 -28
-17 -37 -46 -17 -116 -11 -141 13 -22 20 -23 28 -23 160 l0 138 -25 0 c-21 0
-25 5 -25 30 0 25 4 30 25 30 24 0 25 3 25 60 l0 60 40 0 40 0 0 -60z m-5711
-78 c40 -20 45 -30 27 -54 -12 -16 -15 -16 -52 2 -72 37 -144 22 -144 -30 0
-35 12 -42 100 -65 112 -29 147 -74 116 -148 -20 -48 -65 -70 -141 -70 -56 0
-165 34 -165 52 0 4 7 16 15 28 l14 21 47 -24 c83 -42 169 -24 162 34 -3 24
-12 29 -93 54 -103 32 -129 53 -129 102 0 47 20 82 58 100 43 21 142 20 185
-2z m821 -172 l0 -190 -40 0 -40 0 0 190 0 190 40 0 40 0 0 -190z m353 176
c65 -28 107 -93 107 -167 l0 -39 -150 0 c-98 0 -150 -4 -150 -10 0 -25 32 -71
60 -85 50 -26 105 -16 140 25 12 14 21 16 48 8 32 -8 32 -9 16 -34 -26 -39
-90 -67 -155 -67 -112 0 -192 79 -192 192 0 78 38 141 108 179 28 16 130 15
168 -2z m247 -23 c1 -35 2 -37 15 -19 29 39 68 56 127 56 51 0 59 -3 82 -31
14 -17 26 -35 26 -41 0 -6 9 1 21 16 46 59 145 76 194 34 35 -31 44 -79 45
-230 l0 -128 -40 0 -40 0 0 125 c0 137 -11 178 -51 188 -31 8 -82 -15 -102
-46 -14 -21 -17 -50 -17 -147 l0 -120 -40 0 -40 0 0 125 c0 137 -11 178 -51
188 -31 8 -82 -15 -102 -46 -14 -21 -17 -50 -17 -147 l0 -120 -40 0 -40 0 0
190 0 190 35 0 c34 0 35 -1 35 -37z m670 5 l0 -31 23 20 c35 33 62 43 112 43
125 0 203 -124 165 -262 -33 -117 -178 -162 -262 -82 l-28 28 0 -107 0 -107
-40 0 -40 0 0 265 0 265 35 0 c33 0 35 -2 35 -32z m675 -2 c81 -62 100 -197
38 -273 -44 -55 -86 -76 -152 -77 -113 -1 -194 79 -194 193 0 72 29 127 86
165 38 25 49 27 113 24 60 -3 77 -8 109 -32z m1098 20 c65 -28 107 -93 107
-167 l0 -39 -150 0 c-98 0 -150 -4 -150 -10 0 -25 32 -71 60 -85 50 -26 105
-16 140 25 12 14 21 16 48 8 32 -8 32 -9 16 -34 -26 -39 -90 -67 -155 -67
-112 0 -192 79 -192 192 0 78 38 141 108 179 28 16 130 15 168 -2z m867 -176
l0 -190 -40 0 -40 0 0 190 0 190 40 0 40 0 0 -190z m343 176 c65 -28 107 -93
107 -167 l0 -39 -150 0 c-98 0 -150 -4 -150 -10 0 -25 32 -71 60 -85 50 -26
105 -16 140 25 12 14 21 16 48 8 32 -8 32 -9 16 -34 -26 -39 -90 -67 -155 -67
-112 0 -192 79 -192 192 0 78 38 141 108 179 28 16 130 15 168 -2z m406 -4
c40 -20 45 -30 27 -54 -12 -16 -15 -16 -52 2 -72 37 -144 22 -144 -30 0 -35
12 -42 100 -65 112 -29 147 -74 116 -148 -20 -48 -65 -70 -141 -70 -56 0 -165
34 -165 52 0 4 7 16 15 28 l14 21 47 -24 c83 -42 169 -24 162 34 -3 24 -12 29
-93 54 -103 32 -129 53 -129 102 0 47 20 82 58 100 43 21 142 20 185 -2z m636
2 c57 -27 69 -56 73 -174 2 -58 8 -109 13 -114 5 -6 9 -25 9 -43 0 -31 -2 -33
-35 -33 -29 0 -37 5 -45 26 l-10 25 -28 -20 c-76 -54 -176 -46 -219 18 -66 98
24 192 172 178 l65 -6 0 28 c0 71 -79 100 -165 62 -38 -17 -50 -19 -57 -9 -16
25 -7 39 35 58 52 24 146 26 192 4z"/>
<path d="M10540 5155 l0 -185 68 0 c129 1 190 54 199 173 4 51 0 70 -19 107
-36 69 -75 90 -169 90 l-79 0 0 -185z"/>
<path d="M8393 5210 c-33 -20 -53 -48 -53 -74 0 -14 17 -16 115 -16 l115 0
-13 33 c-16 38 -69 77 -106 77 -14 0 -40 -9 -58 -20z"/>
<path d="M9515 5205 c-45 -24 -55 -43 -55 -110 0 -68 14 -96 60 -120 40 -21
73 -19 104 6 78 61 71 180 -13 224 -38 19 -58 19 -96 0z"/>
<path d="M9954 5201 c-45 -27 -69 -94 -55 -148 20 -75 95 -112 159 -79 41 21
62 63 62 122 0 41 -5 51 -39 85 -44 45 -78 50 -127 20z"/>
<path d="M11083 5210 c-33 -20 -53 -48 -53 -74 0 -14 17 -16 115 -16 l115 0
-13 33 c-16 38 -69 77 -106 77 -14 0 -40 -9 -58 -20z"/>
<path d="M12293 5210 c-33 -20 -53 -48 -53 -74 0 -14 17 -16 115 -16 l115 0
-13 33 c-16 38 -69 77 -106 77 -14 0 -40 -9 -58 -20z"/>
<path d="M13333 5076 c-40 -18 -56 -47 -43 -80 28 -76 170 -50 178 33 2 18 0
37 -5 41 -17 17 -98 20 -130 6z"/>
</g>
</svg>
